<svg width="135" height="136" viewBox="0 0 135 136" fill="none" xmlns="http://www.w3.org/2000/svg">
<path d="M67.479 103.743C59.8768 94.2091 55.4176 85.8559 53.9199 78.6925C52.4476 72.9128 53.0171 68.2975 55.5694 64.8297C58.2483 60.8303 62.2266 58.8981 67.479 58.8981C72.7313 58.8981 76.7307 60.8303 79.4096 64.8761C81.9155 68.3059 82.5526 72.917 81.0127 78.7389C79.3632 86.0331 74.904 94.382 67.4537 103.79L67.479 103.743ZM121.466 110.16C120.433 117.168 115.666 122.968 109.097 125.803C96.4407 131.317 83.8941 122.53 73.1701 110.599C90.9015 88.383 94.1963 71.0903 86.573 59.9064C82.1138 53.4897 75.6971 50.372 67.479 50.372C50.933 50.372 41.8374 64.3699 45.4191 80.6289C47.4863 89.4419 53.0213 99.4361 61.809 110.62C56.2951 116.708 51.0638 121.057 46.4485 123.736C42.8668 125.668 39.4412 126.858 36.1632 127.141C21.1107 129.381 9.28975 114.792 14.6518 99.7188C15.3985 97.7613 16.8919 94.2048 19.419 88.6867L19.5497 88.3788C27.789 70.5166 37.7874 50.2117 49.2582 27.692L49.5662 26.9453L52.8188 20.6847C55.3669 16.0483 56.4005 13.9811 60.421 11.433C62.3785 10.2686 64.7494 9.67376 67.4283 9.67376C72.7904 9.67376 76.9627 12.7956 78.7683 15.3227C79.6458 16.6642 80.7005 18.4656 82.0421 20.6847L85.1851 26.8145L85.6238 27.692C97.0946 50.2159 107.114 70.4744 115.307 88.3788L115.438 88.5306L118.45 95.3861L120.23 99.6934C121.593 103.123 121.901 106.549 121.437 110.131L121.466 110.16ZM128.322 96.7361C127.288 93.4413 125.487 89.5727 123.268 84.9573V84.7802C112.653 62.2563 102.79 41.9978 93.4285 23.8066L92.8126 22.9038C86.1343 9.21391 81.3629 0.995789 67.479 0.995789C53.768 0.995789 47.9462 10.5302 41.9893 22.9249L41.5294 23.8277C32.1469 41.9978 22.3046 62.2816 11.7113 84.8013V85.1092L8.56834 91.9647C7.40397 94.7997 6.78803 96.272 6.63616 96.7319C-0.966029 117.606 14.6982 135.932 33.6404 135.932C33.7922 135.932 34.3871 135.932 35.1127 135.802H37.2221C47.0644 134.595 57.1937 128.33 67.479 117.146C77.7643 128.33 87.9357 134.591 97.7569 135.802H99.8452C100.592 135.932 101.187 135.932 101.339 135.932C120.281 135.954 135.924 117.606 128.322 96.7319V96.7361Z" fill="#F9FAFA"/>
</svg>
