<svg width="134" height="135" viewBox="0 0 134 135" fill="none" xmlns="http://www.w3.org/2000/svg">
<path fill-rule="evenodd" clip-rule="evenodd" d="M12.1669 28.371C12.1745 28.3198 12.3504 27.138 15.4514 25.9104C18.6032 24.6627 24.5134 23.5 35.3982 23.5C48.3087 23.5 68.6049 28.5701 85.6636 38.122C102.759 47.6943 116.25 61.5558 116.25 78.9862C116.25 87.7303 113.308 93.6808 108.831 97.7221C104.319 101.794 98.1512 104.015 91.5719 105.072C78.4016 107.189 63.9865 104.583 59.2212 103.439C58.4794 103.26 57.6635 103.032 56.7898 102.757C56.7061 91.4558 56.6894 80.1538 56.7396 68.852C59.5282 68.6212 62.4329 68.5 65.4086 68.5C75.4728 68.5 82.6981 69.9545 87.3672 72.0168C92.1013 74.1079 93.9166 76.6679 93.9166 78.75C93.9166 80.1271 93.8096 81.6653 93.1616 83.0203C92.539 84.3222 91.3741 85.5432 89.0504 86.2283C88.5207 86.3845 88.2179 86.9406 88.374 87.4703C88.5302 88 89.0863 88.3029 89.616 88.1467C92.4625 87.3074 94.0893 85.716 94.9658 83.8833C95.8169 82.1038 95.9166 80.1854 95.9166 78.75C95.9166 75.4377 93.1228 72.3727 88.1753 70.1874C83.1629 67.9734 75.6343 66.5 65.4086 66.5C62.446 66.5 59.545 66.618 56.7492 66.8445C56.7866 59.5671 56.8518 52.2898 56.9448 45.0128C56.9518 44.4605 56.5098 44.0071 55.9576 44.0001C55.4054 43.993 54.952 44.435 54.9449 44.9872C54.8511 52.3336 54.7855 59.6802 54.7482 67.027C48.6854 67.6421 43.1874 68.7768 38.7234 70.3292C35.2428 71.5395 32.3338 73.0233 30.2759 74.7588C28.2171 76.4952 26.9166 78.5704 26.9166 80.9325C26.9166 83.9647 28.4193 86.86 30.658 89.4767C32.9044 92.1025 35.9723 94.5436 39.3008 96.6891C44.3731 99.9586 50.1548 102.607 54.8009 104.207C54.8376 108.851 54.8856 113.494 54.9449 118.138C54.952 118.69 55.4054 119.132 55.9576 119.125C56.5098 119.118 56.9518 118.664 56.9448 118.112C56.8883 113.693 56.8421 109.274 56.8061 104.854C57.4947 105.06 58.1465 105.237 58.7537 105.383L58.7544 105.384C63.6203 106.552 78.3363 109.225 91.8892 107.047C98.6716 105.957 105.263 103.636 110.171 99.2067C115.113 94.7462 118.25 88.2337 118.25 78.9862C118.25 60.4336 103.919 46.052 86.6407 36.3769C69.3255 26.6814 48.696 21.5 35.3982 21.5C24.4187 21.5 18.2131 22.6661 14.7152 24.0508C11.2594 25.4189 10.1666 27.1393 10.1666 28.3725C10.1666 28.4226 10.1647 28.482 10.1626 28.5494C10.1445 29.1378 10.1073 30.3433 11.1 31.422C12.1473 32.56 14.1659 33.4046 17.8634 33.8321C18.412 33.8956 18.9082 33.5022 18.9716 32.9536C19.035 32.405 18.6417 31.9088 18.0931 31.8454C14.4932 31.4291 13.1059 30.6481 12.5717 30.0677C12.1528 29.6126 12.1577 29.2078 12.1646 28.6195V28.6195C12.1656 28.5407 12.1666 28.4585 12.1666 28.3725C12.1666 28.3728 12.1666 28.3728 12.1666 28.3725C12.1667 28.3723 12.1667 28.3718 12.1669 28.371ZM54.7849 102.082C54.7059 91.0677 54.6905 80.0529 54.7387 69.0384C48.89 69.6451 43.6235 70.7426 39.3803 72.2182C36.0248 73.3851 33.3662 74.769 31.5654 76.2877C29.7656 77.8055 28.9166 79.3712 28.9166 80.9325C28.9166 83.2946 30.0945 85.7417 32.1777 88.1766C34.2531 90.6024 37.1483 92.9222 40.3843 95.0081C45.0894 98.0408 50.4204 100.519 54.7849 102.082Z" fill="#F9FAFA"/>
</svg>
