<svg width="135" height="135" viewBox="0 0 135 135" fill="none" xmlns="http://www.w3.org/2000/svg">
<path d="M43.4082 32.1919C42.048 32.8025 40.8228 33.6773 39.8037 34.7656C38.7846 35.8539 37.9921 37.1338 37.472 38.5311C36.952 39.9284 36.7148 41.4151 36.7744 42.9048C36.834 44.3945 37.1891 45.8576 37.8191 47.2088C38.449 48.5601 39.3413 49.7727 40.4441 50.7761C41.5468 51.7795 42.838 52.5537 44.2425 53.0537C45.6471 53.5537 47.1371 53.7695 48.6258 53.6887C50.1145 53.6078 51.5723 53.2318 52.9144 52.5825L114.092 24.0582C116.753 22.771 118.8 20.4884 119.791 17.7037C120.783 14.9191 120.638 11.8562 119.389 9.17724C118.14 6.49826 115.887 4.41845 113.117 3.38743C110.347 2.35641 107.282 2.45703 104.586 3.66753L43.4082 32.1919ZM26.7188 86.5181C26.0942 85.1793 25.7395 83.7305 25.6748 82.2545C25.6102 80.7786 25.8369 79.3043 26.342 77.916C26.8471 76.5276 27.6207 75.2524 28.6186 74.163C29.6166 73.0736 30.8193 72.1915 32.1582 71.5669L93.3357 43.0425C94.6778 42.3933 96.1356 42.0173 97.6243 41.9364C99.113 41.8555 100.603 42.0713 102.008 42.5713C103.412 43.0713 104.703 43.8456 105.806 44.8489C106.909 45.8524 107.801 47.0649 108.431 48.4162C109.061 49.7675 109.416 51.2305 109.476 52.7202C109.535 54.21 109.298 55.6967 108.778 57.094C108.258 58.4912 107.465 59.7712 106.446 60.8595C105.427 61.9477 104.202 62.8226 102.842 63.4332L41.6644 91.9575C38.9611 93.2171 35.8682 93.3517 33.0656 92.3317C30.263 91.3118 27.9802 89.2207 26.7188 86.5181ZM15.4688 125.893C14.8442 124.554 14.4895 123.105 14.4248 121.63C14.3602 120.154 14.5869 118.679 15.092 117.291C15.5971 115.903 16.3707 114.627 17.3686 113.538C18.3666 112.449 19.5693 111.566 20.9082 110.942L82.0857 82.4175C83.4278 81.7683 84.8856 81.3923 86.3743 81.3114C87.863 81.2305 89.353 81.4463 90.7576 81.9463C92.1621 82.4463 93.4533 83.2206 94.556 84.2239C95.6588 85.2273 96.5511 86.4399 97.181 87.7912C97.811 89.1425 98.1661 90.6055 98.2257 92.0952C98.2853 93.585 98.0481 95.0717 97.5281 96.4689C97.008 97.8662 96.2155 99.1462 95.1964 100.234C94.1773 101.323 92.9521 102.198 91.5919 102.808L30.4144 131.333C27.7111 132.592 24.6182 132.727 21.8156 131.707C19.013 130.687 16.7302 128.596 15.4688 125.893Z" fill="#F9FAFA"/>
</svg>
