<svg width="83" height="69" viewBox="0 0 83 69" fill="none" xmlns="http://www.w3.org/2000/svg">
<path fill-rule="evenodd" clip-rule="evenodd" d="M23.9688 29V0H24.9688L24.9688 29L52.9688 29V30L23.9688 30V29.0007V29ZM59.0312 8V9V37H58.0312V9L30.0312 9V8L58.0312 8H59.0312Z" fill="#D39042"/>
<path d="M19.707 57.9686C19.707 56.4181 19.4186 54.9724 18.8418 53.6314C18.265 52.2905 17.4426 51.1276 16.3744 50.1429C15.3277 49.1581 14.0673 48.3933 12.5933 47.8486C11.1406 47.2829 9.53841 47 7.78667 47H0V69H7.78667C9.53841 69 11.1406 68.7171 12.5933 68.1514C14.0673 67.5857 15.3277 66.8105 16.3744 65.8257C17.4426 64.841 18.265 63.6781 18.8418 62.3371C19.4186 60.9752 19.707 59.519 19.707 57.9686ZM17.0794 58.0314C17.0794 59.2676 16.8551 60.4095 16.4065 61.4571C15.9792 62.5048 15.3597 63.4267 14.5479 64.2229C13.7575 64.9981 12.7855 65.6057 11.6319 66.0457C10.4784 66.4857 9.1966 66.7057 7.78667 66.7057H2.53147V49.2943H7.78667C9.1966 49.2943 10.4784 49.5248 11.6319 49.9857C12.7855 50.4257 13.7575 51.0438 14.5479 51.84C15.3597 52.6152 15.9792 53.5371 16.4065 54.6057C16.8551 55.6743 17.0794 56.8162 17.0794 58.0314Z" fill="#F9FAFA"/>
<path d="M49.3869 54.0086C49.3869 52.919 49.184 51.9448 48.7781 51.0857C48.3936 50.2057 47.8275 49.4724 47.0798 48.8857C46.3534 48.2781 45.4669 47.8171 44.4201 47.5029C43.3947 47.1676 42.2518 47 40.9914 47H32.5959V69H35.1274V61.2371H40.5749C41.7712 61.2371 42.9034 61.0905 43.9715 60.7971C45.0396 60.4829 45.9689 60.0219 46.7593 59.4143C47.5711 58.8067 48.212 58.0524 48.682 57.1514C49.1519 56.2505 49.3869 55.2029 49.3869 54.0086ZM46.8234 54.1029C46.8234 54.8362 46.6739 55.5067 46.3748 56.1143C46.0971 56.701 45.6805 57.2143 45.1251 57.6543C44.591 58.0733 43.9395 58.3981 43.1704 58.6286C42.4227 58.859 41.5896 58.9743 40.671 58.9743H35.1274V49.2943H40.7992C42.615 49.2943 44.0676 49.7029 45.1571 50.52C46.268 51.3162 46.8234 52.5105 46.8234 54.1029Z" fill="#F9FAFA"/>
<path d="M80.4685 51.18V69H83V47H80.4365L72.2653 59.0057L64.0941 47H61.5306V69H63.998V51.2114L72.1692 62.9657H72.2973L80.4685 51.18Z" fill="#F9FAFA"/>
</svg>
